<svg width="63" height="34" viewBox="0 0 63 34" fill="none" xmlns="http://www.w3.org/2000/svg">
<path d="M17.2776 0.664209C18.3932 -0.311981 20.0889 -0.198925 21.0651 0.916727C22.0413 2.03238 21.9282 3.72806 20.8126 4.70425L6.7602 17L20.8126 29.2958L20.8643 29.3419C21.9316 30.3247 22.026 31.9851 21.0651 33.0833C20.1042 34.1815 18.446 34.3083 17.3303 33.3809L17.2776 33.3358L0.916705 19.02C0.334192 18.5103 0 17.774 0 17C0 16.226 0.334192 15.4897 0.916705 14.98L17.2776 0.664209ZM41.5664 0.916727C42.5273 -0.181484 44.1855 -0.308279 45.3012 0.619148L45.3539 0.664209L61.7148 14.98L61.7687 15.0284C62.3179 15.5357 62.6315 16.2502 62.6315 17C62.6315 17.7498 62.3179 18.4643 61.7687 18.9716L61.7148 19.02L45.3539 33.3358C44.2383 34.312 42.5426 34.1989 41.5664 33.0833C40.5902 31.9676 40.7033 30.2719 41.8189 29.2958L55.8712 17L41.8189 4.70425L41.7672 4.65807C40.6999 3.6753 40.6055 2.01495 41.5664 0.916727ZM28.6315 4.72934C28.6315 3.24689 29.8333 2.04513 31.3158 2.04513C32.7982 2.04513 34 3.24689 34 4.72934V22.7974L37.5996 19.2035L37.6493 19.1552C38.7017 18.1564 40.3647 18.1738 41.3958 19.2065C42.4431 20.2556 42.4418 21.9551 41.3928 23.0025L33.2123 31.1702C32.1808 32.2001 30.5201 32.2161 29.4689 31.2184L29.4192 31.1702L21.2387 23.0025L21.1903 22.953C20.1899 21.9022 20.2047 20.2392 21.2357 19.2065C22.2668 18.1738 23.9298 18.1564 24.9822 19.1552L25.0319 19.2035L28.6315 22.7974V4.72934Z" fill="black"/>
</svg>
