<svg width="43" height="43" viewBox="0 0 43 43" fill="none" xmlns="http://www.w3.org/2000/svg">
<path d="M41.5667 43H2.86667C2.10638 43 1.37723 42.698 0.839627 42.1604C0.302023 41.6228 0 40.8936 0 40.1333V1.43333C0 1.05319 0.151011 0.688616 0.419814 0.419814C0.688616 0.151011 1.05319 0 1.43333 0C1.81348 0 2.17805 0.151011 2.44685 0.419814C2.71566 0.688616 2.86667 1.05319 2.86667 1.43333V40.1333H41.5667C41.9468 40.1333 42.3114 40.2843 42.5802 40.5531C42.849 40.8219 43 41.1865 43 41.5667C43 41.9468 42.849 42.3114 42.5802 42.5802C42.3114 42.849 41.9468 43 41.5667 43Z" fill="black"/>
<path d="M12.5415 37.2668H8.95822C8.10289 37.2668 7.2826 36.927 6.6778 36.3222C6.07299 35.7174 5.73322 34.8971 5.73322 34.0417V20.4251C5.73322 19.5698 6.07299 18.7495 6.6778 18.1447C7.2826 17.5399 8.10289 17.2001 8.95822 17.2001H12.5415C13.3969 17.2001 14.2172 17.5399 14.822 18.1447C15.4268 18.7495 15.7665 19.5698 15.7665 20.4251V34.0417C15.7665 34.8971 15.4268 35.7174 14.822 36.3222C14.2172 36.927 13.3969 37.2668 12.5415 37.2668ZM25.4415 37.2668H21.8582C21.0029 37.2668 20.1826 36.927 19.5778 36.3222C18.973 35.7174 18.6332 34.8971 18.6332 34.0417V16.1251C18.6332 15.2698 18.973 14.4495 19.5778 13.8447C20.1826 13.2399 21.0029 12.9001 21.8582 12.9001H25.4415C26.2969 12.9001 27.1172 13.2399 27.722 13.8447C28.3268 14.4495 28.6665 15.2698 28.6665 16.1251V34.0417C28.6665 34.8971 28.3268 35.7174 27.722 36.3222C27.1172 36.927 26.2969 37.2668 25.4415 37.2668ZM38.3093 37.2668H34.726C33.8706 37.2668 33.0504 36.927 32.4455 36.3222C31.8407 35.7174 31.501 34.8971 31.501 34.0417V10.3917C31.501 9.53642 31.8407 8.71613 32.4455 8.11133C33.0504 7.50652 33.8706 7.16675 34.726 7.16675H38.3093C39.1646 7.16675 39.9849 7.50652 40.5897 8.11133C41.1945 8.71613 41.5343 9.53642 41.5343 10.3917V34.0417C41.5343 34.8971 41.1945 35.7174 40.5897 36.3222C39.9849 36.927 39.1646 37.2668 38.3093 37.2668Z" fill="black"/>
</svg>
