<svg width="64" height="34" viewBox="0 0 64 34" fill="none" xmlns="http://www.w3.org/2000/svg">
<path d="M57.6291 3.85699e-07C56.68 0.000306223 55.744 0.221883 54.8954 0.647137C54.0469 1.07239 53.3091 1.68961 52.7408 2.4498C52.1725 3.20998 51.7892 4.09219 51.6214 5.02639C51.4536 5.96059 51.5059 6.92105 51.7741 7.8315L42.3006 17.3036C41.0512 16.8874 39.7006 16.8874 38.4512 17.3036L31.4281 10.2805C31.6592 9.37871 31.6811 8.43601 31.492 7.52447C31.3029 6.61294 30.9079 5.75671 30.3371 5.02125C29.7664 4.2858 29.035 3.69058 28.1989 3.28112C27.3629 2.87166 26.4443 2.65879 25.5133 2.65879C24.5824 2.65879 23.6638 2.87166 22.8277 3.28112C21.9917 3.69058 21.2603 4.2858 20.6896 5.02125C20.1188 5.75671 19.7238 6.61294 19.5347 7.52447C19.3456 8.43601 19.3675 9.37871 19.5986 10.2805L7.85263 22.0185C6.54857 21.6325 5.15306 21.6921 3.88667 22.1879C2.62028 22.6837 1.55525 23.5874 0.859911 24.7562C0.164575 25.925 -0.121401 27.2922 0.0471859 28.6417C0.215772 29.9912 0.829304 31.246 1.79081 32.2078C2.75231 33.1696 4.00694 33.7836 5.35638 33.9526C6.70582 34.1216 8.07311 33.8361 9.24213 33.1411C10.4111 32.4461 11.3152 31.3814 11.8114 30.1152C12.3076 28.8489 12.3677 27.4534 11.9821 26.1493L23.5793 14.5533C24.8287 14.9698 26.1794 14.9698 27.4287 14.5533L34.4532 21.5778C34.2221 22.4796 34.2002 23.4223 34.3893 24.3338C34.5784 25.2453 34.9734 26.1016 35.5442 26.837C36.1149 27.5725 36.8463 28.1677 37.6824 28.5772C38.5184 28.9866 39.437 29.1995 40.368 29.1995C41.2989 29.1995 42.2175 28.9866 43.0536 28.5772C43.8896 28.1677 44.621 27.5725 45.1917 26.837C45.7625 26.1016 46.1575 25.2453 46.3466 24.3338C46.5357 23.4223 46.5139 22.4796 46.2827 21.5778L55.9035 11.9623C56.7435 12.2101 57.6268 12.2743 58.4937 12.1506C59.3607 12.0269 60.1908 11.7182 60.9279 11.2454C61.665 10.7726 62.2918 10.1468 62.7657 9.41046C63.2397 8.6741 63.5496 7.84441 63.6747 6.97769C63.7997 6.11096 63.7368 5.22749 63.4903 4.3872C63.2438 3.54691 62.8195 2.76948 62.2461 2.10764C61.6726 1.44581 60.9636 0.915055 60.167 0.551398C59.3703 0.187742 58.5048 -0.000310849 57.6291 3.85699e-07Z" fill="black"/>
</svg>
