<svg width="41" height="50" viewBox="0 0 41 50" fill="none" xmlns="http://www.w3.org/2000/svg">
<path d="M20.3117 10.9375C19.2301 10.9375 18.1727 10.6168 17.2734 10.0159C16.3741 9.41497 15.6731 8.56086 15.2592 7.56158C14.8453 6.56229 14.737 5.4627 14.948 4.40187C15.159 3.34103 15.6799 2.36659 16.4447 1.60177C17.2095 0.836947 18.184 0.316097 19.2448 0.105083C20.3056 -0.10593 21.4052 0.00236957 22.4045 0.416288C23.4038 0.830206 24.2579 1.53115 24.8588 2.43049C25.4597 3.32982 25.7805 4.38715 25.7805 5.46877C25.7789 6.9187 25.2022 8.3088 24.177 9.33406C23.1517 10.3593 21.7616 10.936 20.3117 10.9375Z" fill="black"/>
<path d="M37.4991 11.0155L37.4552 11.0272L37.4142 11.0399C37.3165 11.0672 37.2189 11.0965 37.1212 11.1268C35.3038 11.66 26.4835 14.1464 20.2696 14.1464C14.4952 14.1464 6.47267 11.9979 3.90626 11.2684C3.65084 11.1697 3.39 11.0855 3.12501 11.0165C1.26954 10.5282 0 12.413 0 14.1356C0 15.8417 1.53321 16.6542 3.08106 17.2372V17.2645L12.3799 20.1688C13.3301 20.5331 13.584 20.9052 13.708 21.2274C14.1114 22.2616 13.7891 24.3095 13.6748 25.0243L13.1084 29.4189L9.96487 46.625C9.95511 46.6719 9.94632 46.7197 9.9385 46.7685L9.91604 46.8926C9.68948 48.4697 10.8477 50 13.0411 50C14.9551 50 15.7998 48.6787 16.1661 46.8808C16.5323 45.083 18.9004 31.4931 20.2676 31.4931C21.6348 31.4931 24.4512 46.8808 24.4512 46.8808C24.8175 48.6787 25.6622 50 27.5762 50C29.7755 50 30.9337 48.4629 30.7013 46.8808C30.6813 46.7478 30.6565 46.6156 30.627 46.4844L27.4405 29.4208L26.8751 25.0263C26.4659 22.4667 26.795 21.621 26.9063 21.4227C26.9093 21.4181 26.9119 21.4132 26.9141 21.4081C27.0196 21.2128 27.5001 20.7753 28.6212 20.3544L37.3399 17.3065C37.3935 17.2923 37.4463 17.2753 37.4981 17.2557C39.0607 16.6698 40.6232 15.8593 40.6232 14.1376C40.6232 12.4159 39.3546 10.5282 37.4991 11.0155Z" fill="black"/>
</svg>
