<?xml version="1.0" encoding="UTF-8"?><svg xmlns="http://www.w3.org/2000/svg" viewBox="0 0 1305.08 314.99"><g id="a"/><g id="b"><g id="c"><g><path d="M315,0c-24.85,0-45,20.15-45,45,0,2.63,.24,5.21,.67,7.71l-37.6,31.41c-6.92,5.78-9.72,15.13-7.12,23.76l23.09,76.61L81.59,49.96c-7.7-6.19-18.54-6.63-26.72-1.08-8.18,5.54-11.78,15.78-8.88,25.22l40.62,132.39-25.64,21.42c-4.96-1.88-10.34-2.93-15.97-2.93-24.85,0-45,20.15-45,45s20.15,45,45,45,45-20.15,45-45c0-2.45-.2-4.86-.58-7.21l37.51-31.34c6.95-5.8,9.74-15.21,7.08-23.87l-23.53-76.69,166.97,134.14c7.69,6.17,18.5,6.63,26.67,1.11,8.17-5.51,11.81-15.71,8.96-25.15l-39.75-131.87,26.18-21.87c4.83,1.77,10.05,2.74,15.49,2.74,24.85,0,45-20.15,45-45S339.85,0,315,0Z"/><path d="M1260.08,57.07c-13.25-7.68-28.65-12.07-45.08-12.07s-31.83,4.39-45.08,12.07c-26.9,15.58-45,44.68-45,78.01v44.92c0,33.33,18.1,62.43,45,78.01,13.25,7.68,28.65,12.07,45.08,12.07s31.83-4.39,45.08-12.07c26.9-15.58,45-44.68,45-78.01v-44.92c0-33.33-18.1-62.43-45-78.01Zm0,122.93c0,24.9-20.19,45.08-45.08,45.08s-45.08-20.18-45.08-45.08v-44.92c0-24.9,20.18-45.08,45.08-45.08s45.08,20.18,45.08,45.08v44.92Z"/><path d="M1068.05,90.08c-7.91-13.68-19.31-25.09-32.98-33.01-12.28-7.11-26.4-11.41-41.47-11.99h-71.18c-12.43,0-22.5,10.07-22.5,22.5V247.58c0,12.43,10.07,22.5,22.5,22.5h22.5v-.09h48.94c14.97-.62,29-4.91,41.21-11.98,13.68-7.92,25.07-19.34,32.98-33.02,7.65-13.23,12.02-28.6,12.02-44.99v-44.92c0-16.39-4.38-31.76-12.02-45Zm-32.98,89.92c0,23.96-18.68,43.54-42.26,44.99h2.48c-1.75,.11-3.51,.16-5.29,.16s-3.54-.05-5.29-.16h-39.79V90.08h39.79c1.75-.11,3.51-.16,5.29-.16s3.54,.05,5.29,.16h-2.64c23.66,1.37,42.42,20.99,42.42,45v44.92Z"/><path d="M810,57.07c-13.25-7.68-28.65-12.07-45.08-12.07s-31.83,4.39-45.08,12.07c-26.9,15.58-45,44.68-45,78.01v44.92c0,33.33,18.1,62.43,45,78.01,13.25,7.68,28.65,12.07,45.08,12.07s31.83-4.39,45.08-12.07c26.9-15.58,45-44.68,45-78.01v-44.92c0-33.33-18.1-62.43-45-78.01Zm0,122.93c0,24.9-20.19,45.08-45.08,45.08s-45.08-20.18-45.08-45.08v-44.92c0-24.9,20.18-45.08,45.08-45.08s45.08,20.18,45.08,45.08v44.92Z"/><path d="M630,67.5V247.49c0,12.43-10.07,22.5-22.5,22.5h-10.16c-7.69,0-14.84-3.93-18.98-10.41l-83.37-130.84v118.75c0,12.43-10.07,22.5-22.5,22.5h0c-12.43,0-22.5-10.07-22.5-22.5V67.5c0-12.43,10.07-22.5,22.5-22.5h10.16c7.69,0,14.84,3.93,18.98,10.41l83.37,130.85V67.5c0-12.43,10.07-22.5,22.5-22.5h0c12.43,0,22.5,10.07,22.5,22.5Z"/></g></g></g></svg>