<svg width="45" height="45" viewBox="0 0 45 45" fill="none" xmlns="http://www.w3.org/2000/svg">
<rect width="45" height="45" fill="#FBC400"/>
<path d="M11.25 0H0.865385C0.387446 0 0 0.387446 0 0.865385V11.25C0 11.7279 0.387446 12.1154 0.865385 12.1154H11.25C11.7279 12.1154 12.1154 11.7279 12.1154 11.25V0.865385C12.1154 0.387446 11.7279 0 11.25 0Z" fill="black"/>
<path d="M27.6925 0H17.3079C16.83 0 16.4425 0.387446 16.4425 0.865385V11.25C16.4425 11.7279 16.83 12.1154 17.3079 12.1154H27.6925C28.1704 12.1154 28.5579 11.7279 28.5579 11.25V0.865385C28.5579 0.387446 28.1704 0 27.6925 0Z" fill="black"/>
<path d="M44.1345 0H33.7499C33.272 0 32.8845 0.387446 32.8845 0.865385V11.25C32.8845 11.7279 33.272 12.1154 33.7499 12.1154H44.1345C44.6125 12.1154 44.9999 11.7279 44.9999 11.25V0.865385C44.9999 0.387446 44.6125 0 44.1345 0Z" fill="black"/>
<path d="M11.25 16.4423H0.865385C0.387446 16.4423 0 16.8297 0 17.3077V27.6923C0 28.1702 0.387446 28.5577 0.865385 28.5577H11.25C11.7279 28.5577 12.1154 28.1702 12.1154 27.6923V17.3077C12.1154 16.8297 11.7279 16.4423 11.25 16.4423Z" fill="black"/>
<path d="M27.6925 16.4423H17.3079C16.83 16.4423 16.4425 16.8297 16.4425 17.3077V27.6923C16.4425 28.1702 16.83 28.5577 17.3079 28.5577H27.6925C28.1704 28.5577 28.5579 28.1702 28.5579 27.6923V17.3077C28.5579 16.8297 28.1704 16.4423 27.6925 16.4423Z" fill="black"/>
<path d="M44.1345 16.4423H33.7499C33.272 16.4423 32.8845 16.8297 32.8845 17.3077V27.6923C32.8845 28.1702 33.272 28.5577 33.7499 28.5577H44.1345C44.6125 28.5577 44.9999 28.1702 44.9999 27.6923V17.3077C44.9999 16.8297 44.6125 16.4423 44.1345 16.4423Z" fill="black"/>
<path d="M11.25 32.8846H0.865385C0.387446 32.8846 0 33.2721 0 33.75V44.1346C0 44.6126 0.387446 45 0.865385 45H11.25C11.7279 45 12.1154 44.6126 12.1154 44.1346V33.75C12.1154 33.2721 11.7279 32.8846 11.25 32.8846Z" fill="black"/>
<path d="M27.6925 32.8846H17.3079C16.83 32.8846 16.4425 33.2721 16.4425 33.75V44.1346C16.4425 44.6126 16.83 45 17.3079 45H27.6925C28.1704 45 28.5579 44.6126 28.5579 44.1346V33.75C28.5579 33.2721 28.1704 32.8846 27.6925 32.8846Z" fill="black"/>
<path d="M44.1345 32.8846H33.7499C33.272 32.8846 32.8845 33.2721 32.8845 33.75V44.1346C32.8845 44.6126 33.272 45 33.7499 45H44.1345C44.6125 45 44.9999 44.6126 44.9999 44.1346V33.75C44.9999 33.2721 44.6125 32.8846 44.1345 32.8846Z" fill="black"/>
</svg>
